# xmcd
# 
# Track frame offsets:
#     150
#     12369
#     27677
#     43462
#     56769
#     69836
#     83160
#     95110
#     110838
#     125785
#     140083
#     156000
#     170665
#     183173
#     197195
#     209416
#     220793
#     236086
#     250565
#     267291
# 
# Disc length: 3756
# 
# Revision: 0
# Processed by: cddbd v1.5.2PL0 Copyright (c) Steve Scherf et al.
# Submitted via: fre:ac v1.0.27
# 
DISCID=360eaa14
DTITLE=Various Artist - Brothers: Promo Verão
DYEAR=2016
DGENRE=Country
TTITLE0=Michel Teló - Tá quente
TTITLE1=Jads and Jadson - Se toca essa moda
TTITLE2=Maria Cecilia and Rodolfo - Só de pensar
TTITLE3=Breno e Caio Cesar - Não me leve a mal
TTITLE4=Michel Teló - Não tem pra ninguém
TTITLE5=Jads and Jadson - Toca um João Mineiro e Marciano
TTITLE6=Maria Cecilia and Rodolfo - Se você quer saber
TTITLE7=Breno e Caio Cesar - Londres
TTITLE8=Michel Teló - Humilde residência
TTITLE9=Jads and Jadson - Noite fracassada
TTITLE10=Maria Cecilia and Rodolfo - Você de volta
TTITLE11=Breno e Caio Cesar - Tô querendo
TTITLE12=Michel Teló - Amiga da minha irmã
TTITLE13=Jads and Jadson - Jeito carinhoso
TTITLE14=Maria Cecilia and Rodolfo - O troco
TTITLE15=Breno e Caio Cesar - Vento
TTITLE16=Michel Teló - Implorando pra trair
TTITLE17=Jads and Jadson - Ressentimento
TTITLE18=Maria Cecilia and Rodolfo - Coisas exotéricas
TTITLE19=Breno e Caio Cesar - 7 bilhões
EXTD=
EXTT0=
EXTT1=
EXTT2=
EXTT3=
EXTT4=
EXTT5=
EXTT6=
EXTT7=
EXTT8=
EXTT9=
EXTT10=
EXTT11=
EXTT12=
EXTT13=
EXTT14=
EXTT15=
EXTT16=
EXTT17=
EXTT18=
EXTT19=
PLAYORDER=
